<?xml version="1.0" standalone="no"?>
<!DOCTYPE svg PUBLIC "-//W3C//DTD SVG 20010904//EN"
 "http://www.w3.org/TR/2001/REC-SVG-20010904/DTD/svg10.dtd">
<svg version="1.0" xmlns="http://www.w3.org/2000/svg"
 width="1024.000000pt" height="1024.000000pt" viewBox="0 0 1024.000000 1024.000000"
 preserveAspectRatio="xMidYMid meet">

<g transform="translate(0.000000,1024.000000) scale(0.100000,-0.100000)"
fill="#000000" stroke="none">
<path d="M0 5120 l0 -5120 4556 0 4556 0 -4 458 c-4 419 -6 460 -23 492 -23
44 -172 190 -245 240 -31 21 -62 45 -70 55 -35 42 -58 45 -333 45 -197 0 -276
-4 -310 -14 -58 -18 -165 -93 -210 -149 -63 -77 -70 -100 -76 -248 -5 -96 -11
-141 -20 -153 -20 -24 -86 -56 -146 -72 -82 -22 -85 8 -7 65 71 53 72 54 72
161 0 125 16 182 72 260 76 106 169 184 265 220 52 20 85 23 323 31 146 4 279
10 295 14 26 5 44 -4 145 -81 141 -108 308 -273 338 -335 21 -44 22 -54 20
-360 -1 -173 -4 -279 -5 -236 -2 46 -8 75 -13 72 -6 -4 -10 -19 -10 -36 0 -49
-18 -32 -30 28 -6 32 -13 63 -15 68 -2 6 -4 -110 -4 -257 l-1 -268 560 0 560
0 0 404 0 404 -65 37 c-36 20 -65 38 -65 41 0 8 74 -8 88 -19 6 -5 12 -6 12
-2 0 4 7 2 15 -5 13 -11 15 78 14 796 -1 445 -4 791 -8 769 -7 -44 -19 -68
-30 -61 -4 3 -12 -7 -18 -22 -15 -35 -32 -153 -21 -146 4 3 8 -1 8 -8 0 -11
-21 -19 -110 -40 -12 -2 -15 9 -15 62 l0 65 58 56 c54 52 57 58 57 103 0 26
-5 57 -11 68 -15 28 0 40 50 42 l41 1 0 102 0 102 -56 20 c-117 44 -200 51
-317 26 -138 -29 -224 -85 -291 -190 -65 -102 -65 -98 -57 -445 3 -146 -7
-206 -32 -197 -6 2 -15 17 -18 33 l-7 29 -2 -30 c-5 -64 -29 126 -36 286 -10
235 15 342 107 464 51 68 100 103 211 152 76 34 92 37 198 41 86 3 132 0 180
-13 36 -9 77 -19 93 -22 l27 -5 0 3671 0 3671 -5120 0 -5120 0 0 -5120z m4634
3919 c134 -18 297 -86 413 -173 69 -52 180 -174 242 -264 46 -68 84 -98 99
-79 5 7 23 40 40 74 45 92 82 141 159 213 82 77 153 121 269 167 128 51 172
58 354 57 153 0 174 -3 285 -32 201 -53 306 -116 397 -239 l39 -53 64 0 c228
0 437 -81 631 -244 206 -173 367 -450 399 -687 5 -44 8 -46 58 -67 111 -47
277 -199 375 -344 66 -98 134 -235 165 -334 35 -110 93 -405 106 -538 33 -333
-8 -689 -120 -1026 -55 -167 -167 -361 -284 -488 -62 -69 -188 -163 -277 -208
-132 -67 -137 -67 -621 -72 l-437 -3 -23 27 c-12 15 -42 48 -66 72 l-44 44 24
49 c23 47 25 49 69 49 25 0 122 -7 215 -16 231 -21 629 -21 749 1 49 8 91 14
93 11 6 -5 -90 -33 -159 -46 -29 -6 -95 -11 -148 -11 -113 -1 -164 -13 -155
-38 4 -9 9 -39 12 -68 l6 -52 -54 -4 c-30 -2 14 -4 97 -5 219 -3 372 28 479
97 288 184 482 495 576 919 16 73 29 143 28 155 -1 12 -5 2 -10 -22 -4 -24
-16 -50 -26 -58 -10 -8 -12 -12 -5 -8 13 7 13 0 -9 -88 -9 -32 -12 -36 -29
-27 -15 8 -20 6 -25 -10 -5 -16 -12 -19 -31 -14 -16 4 -31 1 -44 -11 -14 -13
-23 -14 -38 -6 -17 9 -18 16 -10 62 14 80 3 68 -22 -23 -29 -104 -87 -233
-127 -278 -16 -19 -35 -44 -41 -55 -11 -20 -11 -20 -12 1 0 11 18 46 40 77 66
92 144 328 175 530 35 226 26 616 -20 812 -31 136 -111 327 -175 420 -48 69
-163 192 -227 244 -65 51 -193 121 -223 121 -15 0 -19 12 -25 73 -19 203 -85
365 -213 517 -107 128 -244 232 -368 279 -75 29 -243 54 -333 50 -75 -4 -80
-3 -85 17 -9 36 -82 121 -142 165 -75 55 -159 93 -279 125 -88 23 -112 26
-200 21 -289 -18 -473 -123 -576 -332 l-44 -88 0 -946 c0 -755 -3 -949 -13
-960 -14 -14 -73 -23 -89 -13 -5 4 -23 29 -39 57 l-28 49 1 616 c2 650 -8
1030 -28 1093 -17 52 -85 125 -101 109 -10 -10 -13 -199 -13 -807 l0 -795 -66
0 c-115 0 -104 -89 -106 814 -1 547 -5 798 -13 828 -38 145 -184 288 -348 342
-333 110 -698 12 -897 -242 l-42 -53 -114 -4 c-330 -12 -553 -132 -744 -400
-97 -135 -134 -232 -181 -472 -3 -16 -30 -35 -105 -72 -180 -91 -300 -203
-408 -385 -106 -179 -158 -359 -182 -626 -27 -313 17 -575 141 -825 120 -243
306 -407 561 -492 75 -25 98 -28 214 -28 160 1 218 17 422 116 140 68 223 93
237 70 4 -6 2 -28 -3 -48 -19 -66 -25 -252 -11 -333 16 -99 63 -240 102 -309
39 -70 197 -227 263 -263 28 -14 86 -39 130 -54 74 -25 97 -28 305 -34 253 -9
313 -21 407 -85 57 -38 171 -147 221 -210 l32 -40 0 915 0 915 -21 35 c-12 19
-71 90 -131 157 -97 108 -194 200 -381 356 l-57 49 -392 -2 c-222 0 -412 -5
-437 -11 -131 -29 -314 -179 -402 -329 l-44 -75 -5 -175 c-3 -109 -10 -183
-17 -196 -41 -73 -203 -172 -317 -196 -54 -12 -92 -6 -81 12 3 5 0 7 -7 5 -8
-3 -14 2 -14 12 -1 10 -3 25 -5 33 -3 10 17 22 68 40 87 31 152 75 193 131 29
40 30 46 30 148 1 169 12 226 65 336 41 87 58 109 148 199 116 115 244 198
330 215 29 5 252 12 496 15 l444 5 91 -68 c174 -131 530 -503 583 -609 17 -35
18 -102 18 -1527 0 -820 -2 -1591 -5 -1714 l-5 -225 -32 -19 c-29 -17 -34 -17
-61 -3 -16 8 -33 23 -38 33 -4 10 -10 275 -12 588 -2 314 -8 561 -13 550 -7
-19 -8 -19 -8 3 -1 12 -5 22 -10 22 -13 0 -85 96 -139 183 -55 89 -115 158
-177 206 -94 71 -109 76 -220 71 -297 -13 -440 7 -596 85 -195 98 -332 233
-426 419 -54 107 -82 209 -92 339 -4 53 -10 100 -13 103 -3 2 -30 -4 -59 -16
-170 -65 -345 -93 -494 -78 -220 22 -465 154 -653 353 -146 154 -237 321 -308
562 -63 220 -87 586 -49 783 8 47 25 137 36 200 36 207 120 416 232 578 93
134 314 322 418 353 35 11 36 12 47 86 39 247 257 556 508 720 165 107 295
151 476 160 l118 6 87 87 c70 69 105 95 173 128 237 115 445 147 724 111z
m1596 -469 c0 -3 -19 -22 -42 -41 -65 -53 -238 -231 -254 -261 -12 -22 -14
-143 -15 -750 0 -643 -8 -915 -25 -970 -4 -13 0 -18 16 -18 14 0 50 27 94 68
39 38 99 88 133 111 70 49 69 43 76 248 4 101 4 103 -22 119 -81 51 -135 190
-100 255 7 15 7 24 -1 34 -7 9 -8 15 0 20 5 3 10 0 10 -7 0 -10 3 -9 9 2 6 8
8 17 5 21 -2 4 2 9 10 12 7 3 27 31 45 62 17 30 35 54 39 51 4 -2 8 110 9 250
3 253 3 253 -20 265 -75 38 -129 191 -97 275 6 15 9 29 6 31 -2 2 -11 -15 -19
-39 l-15 -43 2 65 c2 44 6 64 14 63 7 -2 12 2 12 8 0 5 5 7 10 4 6 -3 10 -1
10 4 0 6 5 11 10 11 7 0 6 -8 -1 -22 -8 -15 3 -9 33 19 68 61 137 77 219 48
123 -44 190 -197 135 -309 -26 -51 -90 -114 -127 -123 l-30 -8 0 -253 c1 -138
1 -258 1 -265 0 -7 15 -20 33 -29 52 -25 98 -69 118 -113 25 -53 24 -135 0
-184 -25 -48 -90 -107 -129 -115 l-30 -7 -1 -171 c0 -95 -4 -179 -7 -187 -9
-23 -165 -161 -259 -230 -102 -75 -294 -257 -334 -317 -16 -25 -32 -65 -35
-88 -3 -22 -8 -932 -10 -2021 -3 -1315 -9 -1997 -15 -2030 -14 -63 -58 -108
-103 -103 l-30 3 2 2143 c0 1321 4 2152 10 2168 5 13 50 66 98 117 127 132
144 164 105 193 -17 12 -18 64 -18 856 0 961 -2 931 70 968 54 28 80 51 100
90 9 17 24 30 34 30 10 0 26 9 36 20 10 11 24 20 30 20 7 0 19 7 26 17 23 27
71 42 127 41 28 -1 52 -4 52 -8z m-1687 -16 c55 -19 129 -93 160 -162 32 -72
29 -172 -8 -241 -27 -49 -80 -106 -119 -128 -16 -9 -18 -41 -22 -344 l-5 -334
108 -95 c59 -52 129 -119 155 -148 l46 -53 6 -97 c10 -143 13 -157 40 -170 29
-13 166 -132 266 -232 77 -77 217 -252 273 -342 l32 -51 -1 -1947 c-1 -1070
-4 -1956 -8 -1967 -9 -30 -59 -48 -99 -36 l-32 9 -6 1319 c-3 726 -7 1607 -8
1957 l-1 638 -172 182 c-95 101 -233 242 -305 315 l-133 131 0 100 c0 93 -2
101 -29 138 -16 21 -50 59 -76 84 -26 25 -83 84 -126 132 l-79 88 0 348 0 348
-54 23 c-64 26 -138 100 -168 168 -25 56 -22 168 6 221 69 134 218 194 359
146z m-645 -318 c92 -48 128 -155 79 -240 -34 -59 -69 -81 -131 -81 -97 1
-176 80 -176 177 0 112 131 195 228 144z m2990 -42 c31 -22 52 -66 52 -113 0
-82 -98 -149 -173 -118 -88 37 -98 170 -18 224 40 27 106 31 139 7z m-3484
-163 c51 -23 119 -95 137 -147 23 -66 17 -153 -15 -218 -111 -227 -447 -152
-482 106 -15 109 64 233 175 275 45 16 129 9 185 -16z m1484 -7 c29 -20 52
-66 52 -103 0 -34 -41 -88 -77 -102 -53 -20 -133 49 -133 115 0 20 12 40 39
67 43 43 80 50 119 23z m2470 -6 c113 -34 180 -186 136 -307 -38 -107 -111
-161 -219 -161 -75 0 -128 24 -176 77 -76 84 -88 191 -32 281 68 109 169 147
291 110z m-739 -264 c72 -33 154 -104 189 -162 l27 -47 -2 -325 c-1 -179 -5
-344 -8 -367 -13 -90 -104 -203 -429 -532 -166 -168 -331 -346 -367 -394 l-66
-88 -6 -1801 c-6 -1796 -6 -1802 -27 -1822 -24 -24 -96 -29 -109 -7 -16 25
-22 882 -18 2291 3 1116 6 1400 17 1420 36 70 145 196 340 392 279 281 462
473 499 523 16 22 32 58 35 80 3 22 2 158 -2 302 -11 315 -6 301 -142 383
l-95 58 1 45 c0 25 6 52 13 61 20 24 88 20 150 -10z m-2549 -139 c54 -49 75
-155 44 -221 -22 -47 -43 -56 -119 -52 -52 2 -67 -1 -78 -15 -24 -34 -62 -38
-542 -58 -274 -11 -349 -19 -442 -50 -121 -40 -267 -166 -332 -289 -52 -98
-61 -157 -61 -431 0 -135 3 -266 6 -291 l6 -44 62 0 c78 -1 133 -28 180 -89
103 -135 57 -315 -99 -386 -110 -51 -258 9 -315 127 -25 51 -29 141 -9 189 9
22 12 114 10 365 -2 358 5 446 50 564 52 142 224 339 344 396 134 63 352 91
696 90 355 -2 396 0 408 26 5 11 7 40 4 65 -7 62 17 116 54 125 15 3 33 7 38
8 20 5 77 -13 95 -29z m808 -7 c57 -74 54 -129 -7 -160 -31 -15 -36 -15 -58
-1 -33 22 -53 64 -53 112 0 32 6 44 31 65 17 14 36 26 43 26 6 0 26 -19 44
-42z m1212 -256 c0 -5 -7 -17 -15 -28 -14 -19 -14 -19 -15 2 0 11 3 24 7 27 9
10 23 9 23 -1z m1835 -37 c51 -25 103 -79 140 -147 27 -47 30 -62 30 -138 -1
-70 -5 -95 -26 -141 -38 -81 -90 -129 -171 -159 l-28 -10 0 -519 0 -519 -77
-103 c-136 -184 -362 -428 -415 -448 -33 -12 -579 -35 -661 -28 -33 3 -66 12
-76 21 -10 9 -32 16 -49 16 -58 0 -36 38 46 80 36 17 78 24 220 35 98 8 238
15 313 15 l135 0 65 63 c35 34 100 105 143 157 44 52 109 128 145 169 l66 75
3 497 3 497 -28 6 c-123 31 -221 181 -211 324 9 121 92 233 197 267 62 20 183
14 236 -10z m-758 -132 c19 -9 47 -34 61 -56 l27 -41 2 -672 2 -673 -26 -48
c-38 -74 -87 -127 -155 -173 l-63 -42 -140 5 c-178 5 -233 21 -293 85 -38 41
-48 46 -95 49 -71 6 -128 -24 -191 -102 -95 -117 -85 50 -86 -1565 -1 -784 -4
-1443 -8 -1465 -6 -32 -14 -43 -41 -57 -36 -18 -54 -14 -85 18 -14 14 -16 163
-16 1518 l0 1502 51 74 c104 152 195 233 273 243 57 8 129 -16 215 -72 75 -48
105 -57 224 -66 82 -6 92 -5 142 20 31 14 74 48 100 77 l45 50 0 596 0 595
-45 48 c-25 26 -45 57 -45 68 0 36 19 70 47 85 36 20 57 20 100 -1z m-2866
-86 c76 -51 98 -130 60 -212 -37 -80 -97 -108 -170 -79 -48 19 -87 61 -96 104
l-7 31 -396 -6 c-219 -3 -414 -8 -435 -11 -63 -8 -182 -97 -273 -205 -59 -70
-64 -88 -64 -268 0 -64 -3 -140 -7 -169 l-6 -53 -66 3 -66 3 -3 75 c-1 41 1
148 6 236 8 147 11 166 34 205 59 100 220 250 328 304 77 39 212 47 630 40
276 -5 344 -3 385 9 72 21 108 19 146 -7z m-908 -318 c51 -23 70 -90 43 -153
-26 -63 -87 -82 -161 -52 -71 30 -86 117 -29 177 36 37 100 50 147 28z m4839
-218 c28 -25 33 -36 33 -75 0 -52 -15 -71 -70 -90 -34 -12 -36 -14 -16 -21 12
-3 29 -17 37 -30 14 -22 14 -29 1 -72 -9 -28 -17 -103 -20 -181 -5 -127 -4
-134 18 -160 12 -15 25 -37 29 -49 10 -32 -17 -78 -55 -93 -38 -16 -69 -3
-103 43 -19 26 -22 47 -27 230 -4 111 -10 214 -14 230 -9 34 6 54 58 77 l39
17 -37 7 c-21 4 -48 18 -62 32 -20 20 -23 31 -18 57 15 69 62 106 137 107 28
0 46 -8 70 -29z m-1286 -15 c78 -78 23 -196 -92 -196 -28 0 -44 8 -70 34 -54
54 -44 127 25 173 50 34 96 30 137 -11z m625 -5 c34 -34 39 -44 39 -86 0 -41
-5 -52 -33 -79 l-33 -31 8 -103 c5 -57 7 -189 6 -295 l-3 -192 -51 -3 c-81 -5
-84 1 -83 181 0 84 4 208 8 277 l7 125 -38 36 c-29 27 -38 44 -38 68 0 78 60
141 134 141 31 0 45 -7 77 -39z m-3556 -305 c21 -21 23 -29 15 -58 -13 -45
-46 -71 -85 -65 -16 3 -39 7 -50 9 -22 3 -45 39 -45 70 0 62 116 93 165 44z
m2735 -168 c85 -59 94 -185 18 -254 -67 -61 -132 -67 -214 -19 -76 45 -101
107 -70 178 42 99 185 150 266 95z m-3097 -12 c38 -16 94 -76 103 -112 4 -14
4 -50 2 -80 -9 -101 -85 -174 -186 -177 -58 -2 -108 27 -150 87 -23 33 -27 49
-27 107 0 60 3 71 31 106 57 72 152 101 227 69z m840 -229 c52 -22 91 -62 122
-124 24 -48 29 -71 29 -133 1 -87 -7 -103 -83 -160 -59 -44 -139 -66 -207 -55
-51 7 -118 54 -151 105 -53 84 -49 82 -131 67 -54 -10 -87 -24 -129 -53 -66
-46 -102 -91 -153 -196 l-38 -77 -41 49 c-23 28 -49 50 -57 50 -8 0 -14 3 -14
6 0 3 26 52 57 107 65 116 144 201 219 238 38 18 71 24 142 27 l93 4 38 52
c45 60 68 81 101 95 37 14 166 13 203 -2z m4115 -182 c-3 -3 -9 2 -12 12 -6
14 -5 15 5 6 7 -7 10 -15 7 -18z m-3760 -157 c65 -16 108 -43 122 -77 12 -30
10 -108 -2 -103 -5 1 -43 2 -85 2 -67 0 -82 3 -108 24 -32 26 -37 64 -15 130
13 40 20 41 88 24z m3140 -82 c37 -19 89 -75 101 -109 15 -40 14 -113 -3 -145
-20 -39 -87 -73 -154 -79 -106 -8 -184 60 -184 161 0 124 140 224 240 172z
m-3328 -231 c62 -32 81 -130 34 -180 -23 -25 -29 -27 -91 -23 -57 4 -69 8 -89
32 -40 46 -26 132 28 170 28 20 81 20 118 1z m-375 -19 c19 -29 15 -86 -9
-155 -26 -71 -21 -102 22 -143 45 -44 92 -68 129 -68 15 0 60 9 98 20 91 26
146 26 170 0 26 -29 4 -112 -39 -144 -55 -41 -124 -61 -211 -61 -67 0 -89 4
-136 28 -83 40 -143 98 -180 172 -29 60 -31 70 -27 147 5 93 28 156 73 201 37
36 88 37 110 3z m2228 -261 c-10 -13 -22 -25 -27 -25 -5 0 1 11 14 25 30 32
36 32 13 0z m-1655 -101 c42 -8 83 -22 91 -29 9 -9 15 -37 15 -82 l1 -68 -65
1 c-36 0 -81 8 -102 17 -33 14 -37 20 -48 74 -7 32 -17 61 -23 64 -18 12 1 39
28 39 14 0 61 -7 103 -16z m1979 -57 c38 -42 58 -102 49 -150 -10 -51 -58
-111 -110 -136 -40 -20 -50 -21 -81 -11 -48 16 -125 94 -126 128 -3 75 4 109
28 145 29 41 52 57 98 67 53 11 107 -5 142 -43z m1290 -297 c-10 -328 -70
-490 -279 -752 -85 -108 -147 -164 -263 -241 -212 -140 -372 -192 -580 -191
-187 2 -334 41 -475 126 -164 99 -220 152 -220 208 0 17 6 20 43 20 58 0 158
-23 258 -58 190 -67 385 -86 519 -50 96 26 253 108 354 184 97 73 229 218 288
316 77 126 115 277 125 491 3 75 7 137 9 137 23 0 32 -14 23 -37 -5 -13 -9
-54 -9 -91 0 -93 -25 -265 -49 -340 -49 -151 -115 -249 -275 -407 -149 -149
-347 -263 -488 -281 -53 -7 -56 -11 -30 -30 14 -11 15 -16 5 -33 -7 -12 -13
-36 -13 -55 0 -28 5 -36 30 -46 17 -7 28 -15 25 -18 -3 -3 -54 -9 -113 -13
l-107 -7 115 3 c148 4 281 37 410 102 178 90 307 206 476 428 133 175 202 403
210 690 4 154 4 159 11 130 3 -11 3 -94 0 -185z m-1548 69 c13 -17 41 -44 62
-59 l38 -27 -27 -14 c-18 -8 -78 -14 -174 -17 l-148 -4 0 76 0 75 58 4 c31 2
82 2 112 0 47 -3 58 -8 79 -34z m969 24 l232 -6 0 -59 c0 -37 -4 -57 -10 -53
-5 3 -10 2 -10 -3 0 -5 -48 -7 -107 -6 -72 2 -96 0 -73 -5 20 -5 -111 -9 -314
-10 -277 -1 -347 2 -339 12 8 10 34 76 49 125 4 14 196 16 572 5z m539 -95
c-3 -8 -6 -5 -6 6 -1 11 2 17 5 13 3 -3 4 -12 1 -19z m-342 -217 c-1 -40 -6
-57 -20 -67 -15 -11 -97 -14 -440 -14 -232 0 -544 -3 -693 -7 l-272 -6 0 71
c0 59 3 71 18 75 9 3 330 4 712 3 l695 -1 0 -54z m-135 -191 c33 -8 32 -8 -17
-9 -47 -1 -71 -13 -42 -23 25 -8 -6 -37 -49 -46 -46 -9 -46 -10 32 -11 56 -1
77 -4 70 -11 -7 -7 -227 -13 -651 -17 l-640 -6 5 59 c2 32 7 61 9 64 15 16
1212 16 1283 0z m-275 -235 c-44 -7 -70 -13 -57 -14 13 0 20 -5 17 -11 -3 -5
3 -10 15 -10 39 0 15 -25 -31 -31 -24 -3 -39 -7 -34 -8 6 -1 -1 -8 -15 -15
-26 -14 -334 -22 -727 -18 l-183 2 0 54 c0 34 5 56 13 59 6 3 253 5 547 5 462
0 524 -2 455 -13z m-916 -514 c60 -61 122 -131 138 -158 l28 -48 0 -202 c0
-199 0 -202 -24 -227 -19 -20 -34 -26 -66 -26 -79 0 -80 2 -80 222 0 180 -1
196 -23 239 -12 25 -43 65 -67 88 -38 35 -45 48 -45 79 0 60 12 142 21 142 4
0 57 -49 118 -109z m2301 19 c0 -12 7 -20 18 -20 23 0 46 -49 26 -57 -23 -9
-16 -23 11 -23 22 0 25 -4 25 -40 0 -31 -5 -43 -27 -57 -36 -25 -102 -94 -109
-115 -3 -10 -11 -18 -18 -18 -8 0 -11 -10 -8 -32 4 -26 2 -30 -12 -25 -9 4
-15 3 -12 -2 3 -5 -8 -14 -24 -21 -49 -20 -29 -21 23 -2 26 10 45 20 43 23 -6
6 22 8 178 15 114 5 151 3 203 -11 115 -31 224 -120 278 -225 49 -98 54 -130
58 -410 3 -205 8 -278 21 -323 9 -33 16 -94 16 -140 0 -131 -19 -319 -36 -355
-15 -32 -18 -34 -60 -30 -24 2 -44 0 -44 -4 0 -5 -4 -8 -8 -8 -11 0 -27 526
-27 860 0 240 -1 246 -24 295 -37 74 -124 157 -196 185 -49 20 -79 24 -165 24
-101 1 -108 0 -182 -36 -55 -26 -99 -58 -156 -112 l-79 -76 -70 0 c-156 0
-353 -81 -463 -190 -36 -36 -80 -92 -97 -125 -28 -54 -38 -85 -57 -176 -5 -22
-15 -29 -68 -44 -134 -37 -221 -105 -312 -243 -56 -85 -92 -175 -138 -346 -30
-113 -32 -132 -31 -276 1 -179 17 -260 78 -381 79 -158 161 -241 297 -304 35
-16 43 -23 23 -18 -16 3 -42 12 -57 20 -24 12 -27 11 -22 -2 4 -10 0 -15 -12
-16 -11 0 -43 -4 -71 -8 -29 -4 -53 -4 -53 1 0 4 -6 8 -14 8 -28 0 -129 98
-181 175 -58 86 -93 180 -121 314 -23 116 -15 388 15 509 23 91 25 105 12 82
-5 -8 -12 -35 -17 -60 -7 -41 -8 -43 -15 -20 -6 18 -7 14 -3 -15 2 -22 1 -35
-3 -28 -10 13 -71 19 -96 8 -9 -4 -31 -2 -47 5 -30 12 -30 13 -30 91 0 46 4
79 10 79 6 0 10 7 10 15 0 21 22 65 30 60 4 -2 12 13 19 34 6 22 23 50 37 63
40 36 50 47 114 130 33 43 72 84 87 92 27 13 81 63 149 137 17 19 57 59 90 90
32 31 60 60 60 65 1 4 10 13 20 19 21 12 53 46 54 58 0 19 187 189 213 194 18
4 27 12 27 24 0 12 7 19 20 19 11 0 20 4 20 10 0 5 21 31 48 58 26 26 82 87
126 135 43 48 83 87 88 87 12 0 37 23 174 155 63 60 120 112 126 115 26 11 74
46 112 83 27 27 42 35 49 28 6 -6 26 -11 44 -11 30 0 33 3 33 30 0 28 2 30 40
30 33 0 40 -3 40 -20z m-6515 -397 c62 -21 111 -60 147 -116 26 -41 32 -60 32
-102 -1 -57 -22 -112 -25 -65 -3 60 -18 -68 -29 -254 -11 -182 -21 -246 -40
-246 -15 0 -29 27 -35 65 -8 54 12 474 23 488 29 38 -54 137 -132 158 -56 15
-162 6 -217 -18 -25 -11 -64 -41 -88 -65 -39 -42 -46 -46 -104 -50 -77 -7
-134 -34 -181 -90 -34 -39 -66 -117 -66 -160 0 -35 -19 -56 -56 -62 -74 -14
-171 -133 -200 -246 -35 -136 7 -350 87 -443 60 -69 116 -99 189 -100 52 0 67
5 117 36 l58 36 12 -80 c20 -140 53 -199 136 -245 48 -27 60 -29 152 -29 119
0 122 -2 239 -108 l86 -78 -3 -242 -2 -242 -25 0 -25 0 -6 195 c-5 187 -6 197
-32 247 -30 57 -91 123 -116 123 -90 1 -206 12 -249 25 -31 9 -70 32 -94 53
-49 44 -108 132 -127 188 l-13 39 -106 0 c-97 0 -112 3 -157 27 -219 115 -297
463 -164 736 37 76 117 158 170 174 34 10 40 16 49 52 22 86 44 131 86 172 58
58 135 96 209 102 54 4 62 8 80 36 59 90 280 138 420 89z m641 -4 c53 -16 78
-31 110 -64 35 -36 49 -43 95 -49 138 -18 256 -124 290 -259 8 -35 19 -51 39
-62 41 -21 99 -91 127 -152 60 -130 88 -472 49 -598 -10 -33 -27 -77 -38 -100
-20 -38 -21 -39 -29 -17 -12 31 -40 24 -61 -15 -21 -38 -23 -63 -6 -63 7 0 5
-7 -5 -18 -27 -29 -107 -44 -235 -43 -139 1 -215 12 -274 40 l-43 19 50 3 c28
2 61 3 75 2 14 0 97 -2 184 -4 l159 -3 43 48 c36 39 50 67 74 145 17 54 34
122 39 152 15 90 -18 358 -51 426 -28 56 -85 109 -128 120 -34 9 -35 11 -42
68 -16 127 -143 235 -275 235 -22 0 -39 7 -51 22 -64 82 -115 103 -227 96 -80
-5 -139 -31 -178 -78 -27 -32 -32 -50 -47 -165 -5 -38 -16 -101 -25 -140 -13
-51 -18 -119 -19 -249 -1 -160 -3 -179 -18 -182 -60 -8 -68 67 -43 427 19 288
26 310 108 386 100 93 212 115 353 72z m-772 -170 c41 -48 39 -107 -4 -161
-29 -35 -30 -41 -30 -133 l0 -96 68 -70 c37 -38 103 -107 147 -152 44 -45 99
-103 122 -128 l42 -47 2 -433 c2 -335 0 -444 -10 -479 -10 -35 -12 -98 -7
-275 4 -126 4 -238 1 -248 -10 -24 -42 -21 -52 6 -9 26 -8 965 2 1202 l7 160
-40 60 c-22 33 -76 94 -119 135 -43 41 -87 93 -98 114 -29 58 -90 96 -164 105
-38 5 -62 4 -64 -3 -2 -6 -56 -9 -141 -7 -164 3 -227 -12 -286 -65 -55 -50
-80 -106 -81 -185 -1 -35 -3 -56 -6 -46 -5 21 -10 21 -29 2 -34 -34 -54 -9
-54 69 0 41 41 106 119 189 66 70 98 81 248 81 l132 1 6 25 c15 66 58 77 73
18 8 -32 10 -33 64 -36 l55 -3 6 89 c4 49 9 96 12 104 4 10 -4 19 -25 28 -43
18 -70 56 -70 99 0 45 22 79 64 97 51 22 81 17 110 -17z m738 -10 c22 -12 48
-66 48 -99 0 -12 -14 -36 -32 -53 -27 -27 -32 -41 -38 -102 -4 -38 -11 -77
-14 -85 -4 -10 5 -26 24 -45 16 -16 30 -39 30 -51 0 -34 -20 -73 -42 -79 -22
-7 -42 -41 -32 -56 6 -11 -33 -59 -48 -59 -5 0 -4 10 2 23 10 19 8 19 -12 -4
-38 -44 -172 -210 -180 -224 -4 -7 -8 -313 -8 -680 -1 -374 -5 -678 -10 -691
-6 -14 -18 -24 -28 -24 -18 0 -19 13 -25 187 -3 104 -3 436 -1 738 l3 550 32
26 32 26 -5 149 c-5 150 0 222 25 393 13 84 17 97 43 118 16 12 33 21 39 20
14 -5 6 -96 -16 -178 -14 -52 -23 -133 -30 -268 -5 -107 -8 -195 -7 -196 2 -1
31 28 65 65 l63 67 -22 51 -22 52 21 27 c11 15 34 32 51 37 29 8 30 10 16 31
-11 17 -13 38 -6 98 8 73 7 78 -15 99 -40 37 -24 105 31 132 37 19 42 19 68 5z
m6163 -19 c25 -6 55 -18 66 -28 49 -39 91 -87 104 -119 14 -32 13 -37 -5 -60
-11 -14 -20 -23 -20 -19 0 4 -8 3 -17 -3 -21 -11 -50 2 -76 36 -44 56 -85 92
-111 99 -15 3 -30 13 -33 21 -5 12 -7 12 -14 1 -5 -7 -9 -8 -9 -3 0 6 -27 9
-62 9 -35 -1 -57 0 -50 3 6 3 12 16 12 29 0 21 4 24 33 22 19 -2 31 1 30 8 -3
15 93 17 152 4z m823 3 c-1 -5 1 -18 6 -30 7 -23 -20 -94 -57 -146 -14 -20
-23 -61 -33 -140 -13 -110 -31 -553 -35 -897 -1 -113 -7 -186 -15 -207 -7 -18
-35 -62 -63 -99 -28 -37 -51 -71 -51 -76 0 -5 -12 -13 -26 -18 -30 -12 -64 3
-64 27 0 9 -9 27 -21 39 -26 28 -23 34 80 158 l79 95 5 478 c6 523 14 617 60
696 37 62 145 158 135 120z m-6812 -88 c10 -16 14 -34 10 -50 -5 -21 -12 -25
-41 -25 -26 0 -35 4 -37 18 -6 74 34 108 68 57z m-1128 -22 c3 -25 -2 -35 -22
-48 -32 -21 -53 -14 -62 21 -6 22 -2 31 16 46 35 28 64 20 68 -19z m6837 27
c3 -5 1 -10 -4 -10 -6 0 -11 5 -11 10 0 6 2 10 4 10 3 0 8 -4 11 -10z m184
-18 c50 -25 74 -63 79 -126 4 -46 0 -62 -22 -100 -14 -24 -36 -53 -49 -63 -22
-17 -24 -30 -36 -198 -7 -99 -15 -191 -18 -205 -4 -21 10 -41 76 -114 80 -87
81 -88 81 -142 0 -47 4 -58 33 -87 111 -116 331 -367 347 -397 6 -12 6 -36 0
-71 -6 -28 -10 -53 -10 -55 0 -2 -11 -4 -24 -4 -13 0 -27 -6 -30 -12 -3 -7 -4
-4 -1 7 3 11 -4 34 -14 50 -24 40 -178 222 -260 310 -100 106 -121 138 -137
207 -14 59 -20 69 -107 156 -52 53 -111 103 -137 115 -25 12 -46 30 -48 40 -3
14 4 17 44 17 37 0 45 3 36 12 -9 9 -5 17 14 35 21 20 27 39 39 130 22 160 22
155 -33 190 -27 17 -61 47 -77 67 -24 32 -27 43 -23 90 6 67 38 114 100 145
53 26 130 28 177 3z m-7143 -17 c9 -13 20 -43 25 -66 8 -33 6 -47 -9 -73 -28
-48 -64 -56 -120 -26 -45 24 -47 27 -50 73 -3 43 0 51 28 77 48 45 102 51 126
15z m8335 15 c13 -7 19 -7 19 0 0 5 7 10 15 10 8 0 15 -4 15 -10 0 -5 -5 -10
-12 -10 -6 0 1 -10 16 -23 41 -36 18 -40 -26 -5 -22 17 -54 34 -71 38 l-32 8
28 1 c16 1 37 -4 48 -9z m-111 -15 c0 -2 -10 -9 -22 -15 -22 -11 -22 -10 -4 4
21 17 26 19 26 11z m-7746 -27 c15 -25 -4 -70 -37 -86 -65 -31 -91 25 -37 80
32 31 56 34 74 6z m957 -7 c37 -37 38 -79 3 -120 -35 -42 -67 -40 -111 4 -30
30 -35 40 -29 68 7 39 48 77 82 77 15 0 38 -12 55 -29z m-1236 -91 c0 -29 -22
-37 -48 -18 -26 20 -12 50 22 46 20 -2 26 -8 26 -28z m6625 -11 c-7 -13 -8
-19 -2 -15 6 4 10 -1 9 -11 -1 -21 -44 -27 -67 -10 -8 7 -2 -3 13 -21 39 -48
39 -72 0 -114 -37 -39 -67 -43 -117 -15 l-42 23 -29 -28 c-17 -15 -32 -23 -33
-18 -6 16 -22 1 -22 -21 0 -24 19 -32 50 -21 15 6 54 2 113 -10 49 -10 93 -15
98 -12 16 9 58 -49 59 -81 0 -52 -11 -59 -68 -45 -30 7 -72 9 -105 5 -37 -5
-62 -3 -78 5 -18 10 -24 10 -27 1 -5 -16 -27 15 -69 100 -18 38 -39 72 -46 76
-7 4 -23 22 -35 39 -12 17 -31 34 -43 37 -20 5 -20 4 4 -21 53 -56 71 -138 43
-203 -38 -90 -114 -121 -195 -79 -114 58 -129 198 -29 270 21 16 52 32 69 35
16 4 29 11 29 17 0 14 26 38 34 31 3 -4 6 1 6 9 0 18 27 31 42 21 7 -3 8 -1 4
5 -4 7 7 13 31 18 21 3 70 14 108 24 58 15 109 18 168 11 5 -1 5 -5 2 -11 -3
-5 -1 -10 4 -10 6 0 11 4 11 9 0 5 10 13 23 17 12 4 26 12 30 18 6 8 10 8 14
-1 3 -10 10 -9 26 2 25 18 33 5 17 -26z m1309 9 c-5 -78 0 -95 47 -144 l46
-49 0 -95 c0 -68 2 -85 8 -60 7 34 7 33 9 -15 1 -50 1 -50 -46 -75 -57 -30
-90 -75 -99 -136 -9 -60 17 -126 62 -160 21 -16 34 -35 33 -48 0 -21 0 -21 -9
2 -13 32 -16 28 -12 -23 4 -41 0 -49 -27 -76 -17 -16 -31 -36 -31 -43 0 -9
-12 -16 -32 -18 -30 -3 -34 -7 -43 -50 -24 -114 -14 323 16 727 5 66 9 136 10
155 0 19 5 40 11 47 5 7 7 25 3 40 -5 23 -4 25 9 14 8 -7 17 -27 19 -44 3 -22
4 -16 5 19 2 46 7 64 19 64 3 0 4 -15 2 -32z m-6953 -15 c39 -25 47 -64 40
-179 -4 -59 -10 -112 -13 -119 -2 -8 -52 -53 -109 -101 -135 -113 -230 -222
-237 -272 -3 -20 -6 -272 -7 -559 -1 -517 -5 -583 -34 -583 -17 0 -27 474 -19
892 l6 312 92 101 c50 55 116 119 146 143 126 101 119 90 119 174 0 96 -8 136
-29 143 -9 3 -29 16 -46 29 l-30 25 25 9 c28 11 64 6 96 -15z m-721 -46 c14
-11 16 -21 11 -50 -8 -41 -12 -43 -61 -23 -31 13 -35 19 -35 50 0 34 2 36 33
36 18 0 41 -6 52 -13z m1142 -52 c31 -22 63 -78 63 -110 0 -20 -14 -42 -49
-77 l-49 -49 10 -82 c16 -138 -2 -300 -33 -282 -5 4 -9 84 -9 188 l0 182 -45
49 c-32 34 -45 57 -45 78 0 85 94 147 157 103z m5757 -46 c45 -53 31 -115 -30
-133 -45 -14 -94 31 -94 85 0 26 52 79 78 79 11 0 32 -14 46 -31z m-5984 -43
c0 -22 -6 -36 -17 -40 -15 -6 -16 -27 -10 -223 l6 -216 -43 -44 -43 -43 -82 0
c-78 0 -84 2 -112 29 -16 16 -29 37 -29 47 0 16 -2 16 -21 -2 -12 -10 -34 -38
-50 -61 -29 -41 -29 -43 -29 -187 l0 -146 32 0 c19 0 41 9 55 22 l24 22 29
-30 c23 -25 39 -32 86 -38 35 -4 61 -3 68 4 6 6 58 10 119 10 98 0 108 -2 105
-17 -3 -14 -17 -19 -73 -24 -98 -9 -286 -9 -372 0 l-73 7 -1 -191 c-1 -104 -4
-251 -8 -325 -6 -132 -7 -135 -29 -138 l-24 -4 5 510 c4 502 5 511 26 545 29
48 194 197 217 197 24 0 84 -36 84 -50 0 -6 -12 -23 -26 -37 -22 -22 -31 -25
-70 -19 -42 5 -44 4 -44 -19 0 -34 27 -45 108 -45 60 0 71 3 92 25 22 23 23
32 27 235 4 194 3 213 -14 232 -17 19 -17 20 2 34 10 8 34 14 52 14 31 0 33
-2 33 -34z m-1158 -60 c12 -17 9 -33 -8 -50 -12 -13 -40 -16 -137 -16 -84 0
-136 -5 -166 -16 -25 -8 -61 -14 -80 -12 l-36 3 -3 -52 c-4 -62 -21 -81 -57
-65 -20 9 -25 19 -25 47 0 52 23 89 86 138 l55 44 182 -5 c118 -3 185 -9 189
-16z m8162 -96 c14 -5 46 -28 71 -51 l45 -42 0 -89 c0 -57 -4 -87 -10 -83 -5
3 -10 0 -11 -7 0 -10 -2 -10 -6 0 -4 10 -13 6 -33 -13 l-28 -26 11 38 c17 64
2 111 -51 163 -26 25 -55 50 -65 55 -16 9 -17 14 -6 38 13 29 38 34 83 17z
m-6924 -57 c0 -91 -12 -223 -20 -223 -4 0 -11 30 -14 68 -4 37 -9 92 -12 123
-4 44 -2 59 11 72 28 28 35 19 35 -40z m-1063 -12 c38 -32 97 -88 131 -124
l64 -64 -4 -336 c-2 -185 -7 -340 -11 -344 -15 -14 -40 28 -52 85 -8 38 -11
114 -7 225 l5 167 -24 0 c-32 0 -119 42 -143 69 -12 13 -23 18 -30 12 -6 -5
-30 -12 -54 -16 -37 -6 -47 -4 -67 15 -21 20 -27 21 -62 10 -78 -25 -122 -94
-123 -195 -2 -85 -18 -41 -19 49 -2 121 64 210 156 211 23 0 48 6 55 13 20 20
28 14 28 -19 0 -35 16 -69 31 -69 12 0 8 62 -5 93 -7 14 -3 17 19 17 21 0 30
-7 43 -40 11 -25 24 -40 35 -40 21 0 133 -55 142 -70 15 -24 25 5 25 71 0 65
-2 71 -37 110 -20 22 -73 70 -117 105 l-81 65 -155 -3 c-148 -3 -157 -4 -202
-30 -78 -47 -88 -66 -88 -175 0 -52 -4 -103 -10 -113 -11 -20 -60 -40 -98 -40
l-26 0 26 28 c41 43 48 66 48 147 0 46 6 87 14 104 16 30 80 91 118 112 23 13
149 24 320 27 l87 2 68 -59z m6913 30 c0 -10 9 -21 20 -24 12 -3 20 -14 20
-25 0 -12 4 -23 9 -26 5 -3 7 -14 4 -25 -8 -30 -133 -45 -133 -16 0 21 -17 19
-23 -2 -3 -10 -4 -1 -3 19 0 21 5 38 9 38 15 0 36 27 43 54 8 32 54 38 54 7z
m-6050 -15 c0 -8 -12 -28 -26 -45 -21 -25 -29 -29 -44 -21 -28 15 -36 51 -14
67 25 18 84 17 84 -1z m430 -7 c17 -32 5 -49 -35 -49 -32 0 -35 3 -35 28 0 16
3 32 7 35 14 15 53 6 63 -14z m5081 -20 c33 -35 38 -82 14 -128 -26 -51 -55
-55 -258 -41 -254 18 -465 3 -538 -37 -56 -30 -130 -107 -160 -164 -44 -87
-62 -186 -61 -344 0 -153 9 -205 37 -205 26 0 94 -70 106 -110 17 -57 4 -105
-42 -151 -36 -36 -43 -39 -95 -39 -52 0 -59 3 -94 38 -62 62 -71 138 -25 209
14 22 15 31 4 76 -18 73 -15 285 5 377 9 41 37 118 63 170 37 77 61 110 122
170 63 63 86 79 136 95 76 24 242 33 276 15 25 -14 224 -27 309 -22 37 3 51 8
55 22 3 10 19 36 35 59 38 51 70 54 111 10z m-7063 -102 c28 -26 29 -80 2
-124 -28 -46 -70 -45 -116 1 -51 51 -46 100 14 141 38 26 54 23 100 -18z m671
-9 l36 -23 -95 -6 c-110 -7 -153 -15 -193 -36 -27 -14 -28 -13 -18 6 38 71
195 105 270 59z m-350 -14 c28 -36 26 -55 -7 -87 -34 -32 -70 -35 -101 -6 -32
30 -25 68 18 96 44 30 65 29 90 -3z m1669 -1 c-2 -23 -8 -29 -36 -31 -22 -2
-34 2 -38 12 -11 29 4 46 41 46 34 0 36 -2 33 -27z m5725 -56 c31 -52 47 -135
47 -236 0 -96 -7 -108 -47 -87 -23 11 -32 24 -37 53 -9 59 -7 313 3 313 5 0
20 -19 34 -43z m-5928 -128 c-9 -17 -35 -51 -57 -75 -39 -42 -43 -44 -97 -44
-67 0 -131 10 -131 20 0 13 50 30 88 30 77 1 153 57 191 140 l16 35 3 -37 c2
-21 -4 -51 -13 -69z m5305 59 c60 2 90 -1 81 -6 -10 -7 -10 -11 -1 -17 7 -4
21 -26 31 -50 34 -78 -11 -155 -92 -155 -40 0 -74 30 -85 77 -6 23 -7 23 -159
23 -196 0 -347 -15 -395 -40 -47 -24 -121 -106 -148 -163 -11 -24 -23 -73 -27
-108 -3 -35 -8 -87 -11 -115 l-5 -51 -37 6 -37 7 3 119 c3 107 6 127 31 181
30 64 128 185 185 229 20 15 63 32 107 42 94 20 292 33 389 25 41 -4 118 -5
170 -4z m1538 -51 c-19 -18 -25 -34 -27 -77 -3 -74 -11 -77 -11 -4 0 64 4 75
35 92 30 17 31 14 3 -11z m-6721 -23 c47 -23 43 -61 -9 -89 -36 -19 -37 -19
-57 -1 -25 23 -27 53 -5 84 18 26 26 27 71 6z m-496 -77 c34 -21 23 -52 -31
-92 -27 -20 -50 -40 -50 -43 0 -4 -11 -20 -25 -37 l-24 -30 -1 50 c0 46 3 52
35 73 40 26 43 40 15 65 -12 10 -18 22 -14 28 7 13 67 4 95 -14z m-755 -11 c3
-14 3 -29 0 -35 -10 -16 -73 -24 -105 -13 -35 12 -51 0 -51 -39 0 -41 46 -52
101 -23 28 14 32 14 48 0 10 -9 29 -16 42 -16 14 0 35 -7 47 -16 19 -13 23
-23 20 -62 -3 -47 -23 -67 -35 -35 -4 10 -19 31 -34 47 -25 27 -30 29 -54 18
-36 -17 -110 -15 -145 3 -61 31 -78 99 -39 150 18 22 27 26 53 21 18 -3 41 1
56 9 14 8 40 14 57 15 26 0 34 -5 39 -24z m1384 -49 c0 -2 -10 -12 -22 -23
l-23 -19 19 23 c18 21 26 27 26 19z m4586 -59 c15 -30 15 -34 -2 -66 -20 -38
-47 -56 -72 -48 -21 7 -52 56 -52 82 0 30 40 64 76 64 27 0 36 -6 50 -32z
m-5167 -32 c7 -8 11 -30 9 -48 -2 -27 -8 -34 -30 -36 -44 -5 -58 43 -25 86 13
16 32 15 46 -2z m232 -56 c62 0 79 -3 79 -14 0 -12 -24 -15 -125 -18 l-125 -3
0 24 c0 22 2 23 46 17 26 -3 82 -6 125 -6z m197 -72 c-13 -178 -142 -316 -340
-363 -81 -19 -125 -19 -179 0 -41 15 -99 59 -99 76 0 4 39 6 88 6 90 -2 199
14 229 33 14 8 6 10 -37 6 -40 -4 -47 -3 -25 3 17 5 45 9 63 10 35 1 89 31
148 83 39 35 104 156 104 195 0 18 6 23 26 23 l27 0 -5 -72z m6673 -12 c-23
-23 -38 -46 -34 -51 5 -4 3 -5 -3 -2 -7 4 -17 0 -23 -7 -10 -12 -8 -13 8 -9
24 6 26 0 8 -30 -8 -12 -13 -29 -12 -37 1 -8 -42 -58 -94 -110 -113 -112 -151
-164 -158 -219 -3 -22 -9 -38 -14 -35 -5 3 -9 -3 -9 -13 -1 -14 -4 -13 -15 7
-14 25 -14 25 -9 -10 3 -19 8 -41 10 -48 2 -8 1 -32 -4 -55 -7 -40 -7 -39 -14
33 -3 43 -5 -6 -3 -115 1 -114 -1 -174 -6 -150 -4 22 -8 141 -8 265 -1 205 1
228 18 255 34 54 196 229 236 256 22 15 60 47 85 71 61 59 99 63 41 4z m-6821
-41 c0 -2 -13 -11 -30 -20 -23 -12 -69 -15 -230 -15 -193 0 -200 1 -200 20 0
19 7 20 230 20 127 0 230 -2 230 -5z m-102 -70 c-10 -11 -235 -16 -298 -7 -55
8 -36 10 119 11 101 0 182 -1 179 -4z m-38 -36 c-66 -11 -308 -11 -315 1 -4 7
57 10 177 9 126 -1 169 -4 138 -10z m-5 -40 c-48 -16 -307 -17 -312 -1 -4 9
34 12 169 11 125 0 165 -3 143 -10z m5781 -42 c43 -18 100 -59 113 -80 9 -14
8 -21 -2 -32 -19 -19 -119 -5 -173 24 l-39 20 35 -6 c19 -3 32 -2 28 2 -24 26
-249 22 -318 -5 -55 -22 -90 -26 -90 -10 0 11 78 66 123 85 42 19 282 20 323
2z m-5899 -3 c-12 -12 -187 -17 -187 -5 0 7 32 11 97 11 53 0 94 -3 90 -6z
m5244 -33 c25 -25 29 -37 29 -82 0 -49 -3 -55 -45 -96 -51 -48 -78 -53 -115
-20 -60 53 -74 101 -45 157 38 74 123 94 176 41z m1314 -45 c11 15 15 16 29 5
14 -12 16 -53 14 -370 -1 -196 -4 -331 -8 -301 l-7 55 -3 -65 -3 -65 -6 65 -6
65 -8 -55 c-4 -30 -9 -77 -10 -105 -2 -27 -4 67 -5 210 -1 143 -4 346 -6 450
-2 105 -2 168 1 141 4 -43 6 -46 18 -30z m630 -6 c-11 -21 -14 -42 -10 -63 6
-30 6 -31 -8 -13 -16 21 -9 75 13 102 20 23 23 9 5 -26z m-7366 -41 c20 -35
23 -51 18 -103 -7 -69 -15 -98 -27 -91 -15 9 -36 235 -22 235 4 0 19 -19 31
-41z m6558 -1 c-3 -8 -6 -5 -6 6 -1 11 2 17 5 13 3 -3 4 -12 1 -19z m-626 -3
c69 -36 93 -145 44 -204 -43 -50 -90 -74 -152 -75 -50 0 -58 3 -84 32 -17 18
-31 49 -35 72 -5 27 -10 38 -18 32 -6 -5 -29 -14 -51 -20 -22 -6 -70 -29 -106
-51 -74 -45 -119 -58 -119 -36 0 9 -6 12 -15 9 -62 -24 78 120 152 157 31 15
58 20 103 18 53 -2 63 0 77 20 36 52 144 76 204 46z m693 -82 c2 -10 4 -97 3
-193 0 -96 -3 -142 -4 -102 -3 62 -6 72 -22 72 -16 0 -20 11 -26 65 -3 35 -3
89 0 120 6 44 11 55 25 55 10 0 21 -8 24 -17z m-67 -315 c-1 -51 -3 -10 -3 92
0 102 2 143 3 93 2 -51 2 -135 0 -185z m-356 207 c41 -27 79 -78 79 -107 0
-14 -5 -15 -31 -8 -70 20 -188 117 -173 142 11 17 82 2 125 -27z m856 -357
c-1 -51 -3 -12 -3 87 0 99 2 141 3 93 2 -48 2 -129 0 -180z m-1286 158 c-6 -8
-11 -18 -9 -22 1 -5 -4 -19 -11 -32 -7 -14 -11 -46 -9 -75 l3 -52 46 -15 c38
-12 49 -21 59 -48 6 -18 9 -36 6 -40 -17 -16 -189 66 -206 98 -13 25 -13 83 1
112 15 31 87 88 111 88 16 0 18 -3 9 -14z m-482 -189 c1 -23 -3 -36 -9 -32 -5
3 -10 2 -10 -3 0 -20 -69 -40 -160 -45 -70 -4 -86 -3 -62 4 l33 10 -25 20
c-14 11 -26 29 -26 40 0 15 -7 19 -31 19 -24 0 -30 4 -25 15 4 11 -2 15 -22
16 -15 1 11 5 58 9 89 8 175 35 232 73 l33 23 6 -56 c4 -30 7 -72 8 -93z m790
27 c2 -2 -20 -4 -50 -4 -36 0 -49 3 -40 9 13 8 79 4 90 -5z m478 -26 c-3 -7
-5 -2 -5 12 0 14 2 19 5 13 2 -7 2 -19 0 -25z m663 12 c0 -11 -4 -20 -9 -20
-5 0 -7 9 -4 20 3 11 7 20 9 20 2 0 4 -9 4 -20z m-959 -95 c-8 -76 -8 -77 -10
-24 -1 56 9 133 16 114 1 -6 -1 -46 -6 -90z m666 -117 c-2 -18 -4 -4 -4 32 0
36 2 50 4 33 2 -18 2 -48 0 -65z"/>
<path d="M8692 5935 c0 -16 2 -22 5 -12 2 9 2 23 0 30 -3 6 -5 -1 -5 -18z"/>
<path d="M8502 5920 c0 -14 2 -19 5 -12 2 6 2 18 0 25 -3 6 -5 1 -5 -13z"/>
<path d="M8482 5833 c-7 -25 -11 -47 -9 -50 2 -2 10 17 17 42 7 25 11 48 8 50
-2 2 -10 -16 -16 -42z"/>
<path d="M6201 8267 c-1 -57 23 -98 68 -117 37 -15 89 0 117 32 l19 22 -27
-17 c-62 -39 -153 10 -168 91 l-8 37 -1 -48z"/>
<path d="M6227 7345 c-44 -42 -33 -118 23 -162 8 -7 34 -13 57 -13 70 0 129
76 107 139 -21 59 -137 81 -187 36z m79 5 c21 0 64 -46 64 -67 0 -21 -47 -53
-77 -53 -45 0 -79 82 -48 114 10 9 24 15 32 12 8 -3 21 -6 29 -6z"/>
<path d="M4378 8405 c-31 -18 -68 -89 -68 -134 0 -48 25 -88 70 -111 50 -25
86 -25 128 0 90 55 95 163 12 234 -36 30 -98 35 -142 11z"/>
<path d="M3224 7876 c-76 -76 -28 -196 79 -196 101 0 153 140 76 204 -47 40
-110 37 -155 -8z"/>
<path d="M7217 7879 c-15 -11 -31 -38 -38 -62 -29 -108 95 -176 169 -92 24 29
30 87 11 128 -22 48 -97 62 -142 26z"/>
<path d="M5842 2245 c2 -19 9 -31 21 -33 26 -5 69 7 62 17 -3 5 1 12 7 14 7 3
-5 6 -27 6 -23 1 -47 7 -54 14 -10 10 -12 6 -9 -18z"/>
<path d="M2531 5988 c-26 -26 -31 -40 -31 -79 0 -40 4 -51 31 -73 100 -85 242
62 150 155 -24 23 -38 29 -74 29 -37 0 -50 -5 -76 -32z"/>
<path d="M7729 7167 c-45 -30 -79 -92 -79 -144 0 -33 7 -50 31 -78 71 -81 152
-87 222 -16 38 37 41 45 44 103 4 74 -8 103 -56 135 -46 31 -116 31 -162 0z"/>
<path d="M6090 2474 c0 -6 7 -19 16 -30 14 -18 14 -18 3 6 -14 31 -19 36 -19
24z"/>
<path d="M6626 5954 c-26 -26 -20 -61 14 -79 16 -8 34 -15 39 -15 13 0 41 53
41 78 0 34 -66 45 -94 16z"/>
<path d="M3525 5925 c-48 -47 -22 -115 43 -115 43 0 55 7 71 37 40 77 -52 141
-114 78z"/>
<path d="M4364 5700 c-65 -26 -88 -137 -39 -185 47 -48 131 -28 164 37 30 61
8 118 -56 145 -37 15 -40 15 -69 3z"/>
<path d="M6700 4668 c-15 -16 -20 -33 -18 -58 6 -75 99 -73 111 2 11 68 -49
103 -93 56z"/>
<path d="M7010 3456 c0 -2 9 -6 20 -9 11 -3 18 -1 14 4 -5 9 -34 13 -34 5z"/>
<path d="M8480 2836 c-25 -18 -58 -52 -74 -75 -16 -23 -36 -46 -45 -51 -9 -5
-11 -10 -4 -10 6 0 31 24 54 53 47 56 66 73 113 99 17 9 24 17 16 17 -8 0 -35
-14 -60 -33z"/>
<path d="M8108 2683 c7 -3 16 -2 19 1 4 3 -2 6 -13 5 -11 0 -14 -3 -6 -6z"/>
<path d="M8024 2654 c-18 -14 -18 -14 6 -3 31 14 36 19 24 19 -6 0 -19 -7 -30
-16z"/>
<path d="M7604 2186 c-3 -14 -12 -26 -18 -26 -18 0 -119 -31 -114 -35 2 -2 32
4 67 14 49 13 66 23 73 41 5 12 6 25 4 28 -3 2 -8 -7 -12 -22z"/>
<path d="M7369 2053 c-13 -16 -12 -17 4 -4 16 13 21 21 13 21 -2 0 -10 -8 -17
-17z"/>
<path d="M7324 2008 l-19 -23 23 19 c12 11 22 21 22 23 0 8 -8 2 -26 -19z"/>
<path d="M7279 1953 c-13 -16 -12 -17 4 -4 16 13 21 21 13 21 -2 0 -10 -8 -17
-17z"/>
<path d="M3487 1623 c3 -7 9 -10 14 -7 14 8 11 21 -5 21 -8 0 -12 -6 -9 -14z"/>
<path d="M1981 2676 c-16 -19 -11 -46 11 -60 22 -13 60 19 56 48 -4 26 -49 34
-67 12z"/>
<path d="M2760 2650 c-35 -35 -21 -67 24 -56 27 7 38 35 24 60 -12 21 -24 20
-48 -4z"/>
<path d="M2717 2303 c-14 -13 -6 -43 18 -70 21 -24 26 -26 35 -13 13 21 13 63
-2 78 -13 13 -41 16 -51 5z"/>
<path d="M8729 2501 c-36 -36 -37 -64 -3 -97 27 -28 56 -27 102 2 33 22 34 78
0 107 -30 25 -65 21 -99 -12z"/>
<path d="M1658 2516 c-22 -50 20 -77 56 -37 14 15 15 24 6 40 -15 29 -48 27
-62 -3z"/>
<path d="M3104 2522 c-20 -13 -25 -48 -9 -62 12 -10 21 -10 40 -2 30 14 33 47
6 62 -23 12 -23 12 -37 2z"/>
<path d="M8341 2344 c0 -11 3 -14 6 -6 3 7 2 16 -1 19 -3 4 -6 -2 -5 -13z"/>
<path d="M8002 2203 c-32 -27 -37 -64 -12 -96 28 -35 44 -34 74 6 30 39 32 54
10 85 -18 27 -44 28 -72 5z"/>
<path d="M3266 2284 c-19 -18 -30 -59 -21 -73 9 -15 68 -14 83 1 18 18 15 53
-6 71 -23 21 -36 21 -56 1z"/>
<path d="M7480 997 c-36 -18 -49 -61 -25 -87 25 -28 79 -27 99 2 21 30 20 54
-4 78 -23 23 -36 24 -70 7z"/>
<path d="M1360 1875 c-16 -20 -9 -49 14 -53 27 -6 48 25 35 49 -12 23 -32 24
-49 4z"/>
<path d="M1692 1858 c-17 -17 -15 -48 2 -48 19 0 48 29 43 44 -5 16 -30 19
-45 4z"/>
<path d="M8062 998 c-17 -17 -15 -63 3 -78 22 -18 49 -8 60 24 8 24 6 31 -14
47 -27 22 -33 23 -49 7z"/>
<path d="M8541 874 c-26 -34 -27 -74 -1 -102 17 -18 24 -20 50 -11 36 13 70
53 70 84 0 55 -83 75 -119 29z"/>
</g>
</svg>
